{"title":"The.Longest.Ride.2015.720p.WEB-DL.DD5.1.H264-RARBG","uid":12066802,"size":4216266883,"categoryP":"video","categoryS":"hd___movies","magnet":"?xt=urn:btih:140e13f751dc34fe93628f21529fa3833e59edaa&amp;dn=The.Longest.Ride.2015.720p.WEB-DL.DD5.1.H264-RARBG&amp;tr=udp%3A%2F%2Ftracker.openbittorrent.com%3A80&amp;tr=udp%3A%2F%2Fopen.demonii.com%3A1337&amp;tr=udp%3A%2F%2Ftracker.coppersurfer.tk%3A6969&amp;tr=udp%3A%2F%2Fexodus.desync.com%3A6969","seeders":2,"leechers":0,"uploader":"vickey1992","files":5,"time":1435405347,"description":"Video\nID                                       : 1\nFormat                                   : AVC\nFormat/Info                              : Advanced Video Codec\nFormat profile                           : &lt;a class=&quot;__cf_email__&quot; href=&quot;/cdn-cgi/l/email-protection&quot; data-cfemail=&quot;94d9f5fdfad4d8a7baa5&quot;&gt;[email&amp;#160;protected]&lt;/a&gt;&lt;script data-cfhash='f9e31' type=&quot;text/javascript&quot;&gt;\n/* &lt;![CDATA[ */!function(){try{var t=&quot;currentScript&quot;in document?document.currentScript:function(){for(var t=document.getElementsByTagName(&quot;script&quot;),e=t.length;e--;)if(t[e].getAttribute(&quot;data-cfhash&quot;))return t[e]}();if(t&amp;&amp;t.previousSibling){var e,r,n,i,c=t.previousSibling,a=c.getAttribute(&quot;data-cfemail&quot;);if(a){for(e=&quot;&quot;,r=parseInt(a.substr(0,2),16),n=2;a.length-n;n+=2)i=parseInt(a.substr(n,2),16)^r,e+=String.fromCharCode(i);e=document.createTextNode(e),c.parentNode.replaceChild(e,c)}t.parentNode.removeChild(t);}}catch(u){}}()/* ]]&gt; */&lt;/script&gt;\nFormat settings, CABAC                   : No\nFormat settings, ReFrames                : 2 frames\nCodec ID                                 : V_MPEG4/ISO/AVC\nDuration                                 : 2h 8mn\nBit rate                                 : 3 892 Kbps\nWidth                                    : 1 280 pixels\nHeight                                   : 532 pixels\nDisplay aspect ratio                     : 2.40:1\nFrame rate mode                          : Constant\nFrame rate                               : 23.976 fps\nColor space                              : YUV\nChroma subsampling                       : 4:2:0\nBit depth                                : 8 bits\nScan type                                : Progressive\nBits/(Pixel*Frame)                       : 0.238\nStream size                              : 3.50 GiB (89%)\nTitle                                    : The.Longest.Ride.2015.720p.WEB-DL.DD5.1.H264-RARBG\nLanguage                                 : English\nDefault                                  : Yes\nForced                                   : No\nColor range                              : Limited\nColor primaries                          : BT.709\nTransfer characteristics                 : BT.709\nMatrix coefficients                      : BT.709\n\nAudio\nID                                       : 2\nFormat                                   : AC-3\nFormat/Info                              : Audio Coding 3\nMode extension                           : CM (complete main)\nFormat settings, Endianness              : Big\nCodec ID                                 : A_AC3\nDuration                                 : 2h 8mn\nBit rate mode                            : Constant\nBit rate                                 : 384 Kbps\nChannel(s)                               : 6 channels\nChannel positions                        : Front: L C R, Side: L R, LFE\nSampling rate                            : 48.0 KHz\nBit depth                                : 16 bits\nCompression mode                         : Lossy\nStream size                              : 354 MiB (9%)\nTitle                                    : The.Longest.Ride.2015.720p.WEB-DL.DD5.1.H264-RARBG\nLanguage                                 : English\nDefault                                  : Yes\nForced                                   : No\n\nText\nID                                       : 3\nFormat                                   : UTF-8\nCodec ID                                 : S_TEXT/UTF8\nCodec ID/Info                            : UTF-8 Plain Text\nLanguage                                 : English\nDefault                                  : No\nForced                                   : No\n\nMenu\n00:00:00.000                             : en:Chapter 01\n00:02:13.000                             : en:Chapter 02\n00:07:15.000                             : en:Chapter 03\n00:10:35.000                             : en:Chapter 04\n00:12:43.000                             : en:Chapter 05\n00:15:40.000                             : en:Chapter 06\n00:20:08.000                             : en:Chapter 07\n00:22:59.000                             : en:Chapter 08\n00:26:02.000                             : en:Chapter 09\n00:29:08.000                             : en:Chapter 10\n00:32:59.000                             : en:Chapter 11\n00:37:14.000                             : en:Chapter 12\n00:44:06.000                             : en:Chapter 13\n00:48:56.000                             : en:Chapter 14\n00:53:20.000                             : en:Chapter 15\n00:57:29.000                             : en:Chapter 16\n01:01:37.000                             : en:Chapter 17\n01:04:57.000                             : en:Chapter 18\n01:09:32.000                             : en:Chapter 19\n01:11:55.000                             : en:Chapter 20\n01:16:11.000                             : en:Chapter 21\n01:20:50.000                             : en:Chapter 22\n01:24:56.000                             : en:Chapter 23\n01:29:09.000                             : en:Chapter 24\n01:32:43.000                             : en:Chapter 25\n01:37:09.000                             : en:Chapter 26\n01:39:50.000                             : en:Chapter 27\n01:42:01.000                             : en:Chapter 28\n01:45:14.000                             : en:Chapter 29\n01:52:00.000                             : en:Chapter 30\n01:57:33.000                             : en:Chapter 31\n02:01:53.000                             : en:Chapter 32","torrent":{"xt":"urn:btih:140e13f751dc34fe93628f21529fa3833e59edaa","amp;dn":"The.Longest.Ride.2015.720p.WEB-DL.DD5.1.H264-RARBG","amp;tr":["udp%3A%2F%2Ftracker.openbittorrent.com%3A80","udp%3A%2F%2Fopen.demonii.com%3A1337","udp%3A%2F%2Ftracker.coppersurfer.tk%3A6969","udp%3A%2F%2Fexodus.desync.com%3A6969"],"infoHash":"140e13f751dc34fe93628f21529fa3833e59edaa","infoHashBuffer":{"type":"Buffer","data":[20,14,19,247,81,220,52,254,147,98,143,33,82,159,163,131,62,89,237,170]},"announce":[],"urlList":[]}}